# xmcd
#
# Track frame offsets:
#	154
#	12794
#	28635
#	47649
#	61052
#	79568
#	95568
#	109532
#	129323
#	143191
#	158733
#	174906
#	192069
#	206359
#
# Disc length: 2882 seconds
#
# Revision: 0
# Processed by: cddbd v1.5.2PL0 Copyright (c) Steve Scherf et al.
# Submitted via: EasyCDDAExtractor 15.3.0.1
#
DISCID=a20b400e
DTITLE=Graeff Sharon - Mom's Old Picture Book
DYEAR=1900
DGENRE=
TTITLE0=I Wish You Knew
TTITLE1=Deepening Snow
TTITLE2=Mother's Grave
TTITLE3=Poet With Wings
TTITLE4=Mom's Old Picture Book
TTITLE5=Velvet Lined Coffin
TTITLE6=Flowers And Stones
TTITLE7=On My Father's Side
TTITLE8=Arch Top Silvertone
TTITLE9=Candle In The Wind
TTITLE10=He Carried Me
TTITLE11=Just Like You
TTITLE12=Fifty Years
TTITLE13=I'll Come Runnin'
EXTD=
EXTT0=
EXTT1=
EXTT2=
EXTT3=
EXTT4=
EXTT5=
EXTT6=
EXTT7=
EXTT8=
EXTT9=
EXTT10=
EXTT11=
EXTT12=
EXTT13=
PLAYORDER=
